<svg width="31" height="31" viewBox="0 0 31 31" fill="none" xmlns="http://www.w3.org/2000/svg"><g clip-path="url(#clip0_224:2967)"><path fill="#fff" d="M5 5h20v19H5z"/><path d="M12.435 13.257c-.865 0-1.548.759-1.548 1.685s.698 1.685 1.548 1.685c.866 0 1.549-.759 1.549-1.685.015-.926-.683-1.685-1.549-1.685zm5.542 0c-.866 0-1.549.759-1.549 1.685s.699 1.685 1.549 1.685c.865 0 1.548-.759 1.548-1.685s-.683-1.685-1.548-1.685z" fill="#5579FE"/><path d="M25.355.519H5.011a3.12 3.12 0 00-3.113 3.127v20.526A3.12 3.12 0 005.011 27.3h17.216l-.804-2.809 1.943 1.807 1.837 1.7 3.264 2.885V3.646A3.12 3.12 0 0025.355.52zm-5.86 19.828s-.547-.653-1.002-1.23c1.989-.562 2.748-1.807 2.748-1.807a8.69 8.69 0 01-1.746.896 9.992 9.992 0 01-2.202.653c-1.3.24-2.633.234-3.932-.015-.762-.15-1.51-.368-2.232-.653a8.878 8.878 0 01-1.108-.517c-.046-.03-.091-.045-.137-.075a.21.21 0 01-.06-.046c-.274-.152-.426-.258-.426-.258s.73 1.215 2.657 1.791a97.427 97.427 0 01-1.017 1.26c-3.355-.106-4.63-2.307-4.63-2.307 0-4.889 2.186-8.851 2.186-8.851 2.186-1.64 4.266-1.595 4.266-1.595l.152.183c-2.733.79-3.993 1.989-3.993 1.989s.334-.183.896-.44c1.624-.714 2.915-.912 3.446-.957.091-.015.167-.03.258-.03 2.633-.357 5.31.143 7.637 1.427 0 0-1.2-1.14-3.78-1.929l.212-.243s2.08-.045 4.266 1.595c0 0 2.186 3.962 2.186 8.85 0 0-1.29 2.202-4.645 2.309z" fill="#5579FE"/></g><defs><clipPath id="clip0_224:2967"><path fill="#fff" transform="translate(0 .519)" d="M0 0h30.365v30.365H0z"/></clipPath></defs></svg>