<svg version="1.1" width="32" height="32" id="Layer_1" xmlns="http://www.w3.org/2000/svg" x="0" y="0" viewBox="0 0 90 90" xml:space="preserve"><style>.st1{fill:#fff}</style><path d="M45 0C20.1 0 0 20.1 0 45s20.1 45 45 45 45-20.1 45-45S69.9 0 45 0zM22.2 46.5l.2-.3 11.7-18.3c.2-.3.6-.2.7.1 2 4.4 3.6 9.8 2.9 13.2-.3 1.4-1.3 3.3-2.3 5-.1.3-.3.5-.4.7-.1.1-.2.2-.3.2h-12c-.5 0-.7-.3-.5-.6zm52.2 6.3c0 .2-.1.3-.2.4-.9.4-4 1.8-5.3 3.6-3.3 4.6-5.8 11.1-11.4 11.1H33.9c-8.3 0-15-6.8-15-15.1v-.3c0-.2.2-.4.4-.4h13.1c.3 0 .4.2.4.5-.1.9.1 1.7.5 2.5.8 1.6 2.4 2.6 4.1 2.6h6.5v-5.1h-6.4c-.3 0-.5-.4-.3-.6.1-.1.1-.2.2-.3.6-.9 1.5-2.2 2.3-3.7.6-1 1.2-2.1 1.6-3.2.1-.2.2-.4.2-.6.1-.4.3-.7.3-1 .1-.3.2-.6.2-.8.2-.9.3-1.9.3-2.9 0-.4 0-.8-.1-1.2 0-.4-.1-.9-.1-1.3s-.1-.8-.2-1.2c-.1-.6-.2-1.2-.4-1.8l-.1-.2-.3-1.2c-.4-1.3-.8-2.5-1.2-3.6-.2-.5-.3-.9-.5-1.3-.3-.7-.6-1.3-.8-1.8-.1-.3-.2-.5-.4-.7-.1-.3-.3-.5-.4-.8l-.3-.6-.5-1.7c-.1-.2.1-.4.3-.4l4.9 1.3.7.2.7.2.3.1v-2.9c0-1.4 1.1-2.6 2.5-2.6.7 0 1.3.3 1.8.8s.7 1.1.7 1.8V25l.5.1s.1 0 .1.1c.1.1.3.2.6.4.2.1.4.3.6.5.5.4 1 .9 1.7 1.4.2.1.3.3.5.4.8.7 1.7 1.6 2.6 2.6.2.3.5.6.7.8.2.3.5.6.7.9l.9 1.2c.1.2.3.4.4.6.4.5.7 1.1 1 1.6.1.3.3.5.4.8.3.7.6 1.5.8 2.2.1.2.1.3.1.5.1.2.1.5.1.7.1.8 0 1.5-.1 2.3-.1.3-.2.6-.3 1-.1.3-.2.6-.4 1-.3.6-.6 1.3-1 1.9-.1.2-.3.5-.4.7-.2.2-.3.5-.5.7-.2.3-.4.6-.6.8-.2.3-.4.5-.6.8-.3.4-.6.7-.9 1l-.6.6-.6.6c-.3.3-.6.6-.8.7l-.5.5c-.1.1-.2.1-.3.1h-4v5.1h5c1.1 0 2.2-.4 3-1.1.3-.3 1.6-1.4 3.1-3 .1-.1.1-.1.2-.1l13.7-4c.3-.1.5.1.5.4v3z" fill="#2081e2"/><path class="st1" d="M22.5 47.1h12c.1 0 .3-.1.3-.2.2-.2.3-.5.4-.7 1-1.7 2-3.6 2.3-5 .8-3.4-.9-8.8-2.9-13.2-.1-.3-.5-.3-.7-.1L22.4 46.2l-.2.3c-.2.3 0 .6.3.6z"/><path class="st1" d="M73.9 49.5l-13.7 4c-.1 0-.1.1-.2.1-1.5 1.7-2.8 2.8-3.1 3-.9.7-1.9 1.1-3 1.1h-5v-5.1h3.9c.1 0 .2 0 .3-.1l.5-.5c.2-.2.5-.4.8-.7l.6-.6.6-.6c.3-.3.6-.7.9-1 .2-.2.4-.5.6-.8.2-.3.4-.6.6-.8.1-.2.3-.4.5-.7.1-.2.3-.5.4-.7.4-.6.7-1.2 1-1.9.1-.3.3-.6.4-1 .1-.3.2-.6.3-1 .2-.8.2-1.5.1-2.3 0-.2 0-.5-.1-.7 0-.2-.1-.3-.1-.5-.2-.7-.4-1.5-.8-2.2-.1-.3-.2-.6-.4-.8-.3-.6-.6-1.1-1-1.6-.1-.2-.3-.4-.4-.6l-.9-1.2c-.2-.3-.5-.6-.7-.9-.2-.3-.5-.6-.7-.8-.9-1-1.8-1.8-2.6-2.6-.1-.1-.3-.3-.5-.4-.6-.6-1.2-1.1-1.7-1.4-.2-.2-.4-.4-.6-.5-.2-.2-.4-.3-.6-.4 0 0-.1 0-.1-.1l-.2-.3v-4.4c0-.7-.3-1.3-.7-1.8-.5-.5-1.1-.8-1.8-.8-1.4 0-2.5 1.2-2.5 2.6v2.9l-.3-.1-.7-.2-.7-.2-4.9-1.3c-.2-.1-.4.2-.3.4l.8 1.5.3.6c.1.3.3.5.4.8.1.2.2.5.4.7.3.6.5 1.2.8 1.8.2.4.4.9.5 1.3.4 1.2.9 2.4 1.2 3.6l.3 1.2.1.2c.1.6.3 1.2.4 1.8.1.4.1.8.2 1.2.1.4.1.9.1 1.3s.1.8.1 1.2c0 1-.1 2-.3 2.9-.1.3-.1.6-.2.8-.1.3-.2.7-.3 1-.1.2-.1.4-.2.6-.5 1.1-1 2.2-1.6 3.2-.9 1.5-1.7 2.9-2.3 3.7-.1.1-.2.2-.2.3-.2.3 0 .6.3.6h6.4v5.1h-6.5c-1.7 0-3.3-1-4.1-2.6-.4-.8-.6-1.7-.5-2.5 0-.3-.2-.5-.4-.5H19.3c-.2 0-.4.2-.4.4v.3c0 8.3 6.7 15.1 15 15.1h23.5c5.6 0 8.1-6.6 11.4-11.1 1.3-1.8 4.4-3.2 5.3-3.6.1-.1.2-.2.2-.4v-2.9c.1 0-.2-.1-.4-.1z"/></svg>