<svg width="31" height="31" viewBox="0 0 31 31" fill="none" xmlns="http://www.w3.org/2000/svg"><path fill="#fff" d="M6 6h20v19H6z"/><path d="M15.817.606c-8.05 0-14.575 6.526-14.575 14.575 0 8.05 6.526 14.575 14.575 14.575 8.05 0 14.575-6.525 14.575-14.575 0-8.05-6.525-14.575-14.575-14.575zm5.929 11.94c.006.124.007.249.007.37 0 3.796-2.886 8.17-8.166 8.17a8.1 8.1 0 01-4.4-1.29c.223.027.453.037.685.037a5.75 5.75 0 003.565-1.228 2.876 2.876 0 01-2.682-1.992c.43.082.873.065 1.295-.05a2.872 2.872 0 01-2.303-2.815v-.035c.387.214.83.345 1.301.36a2.87 2.87 0 01-.888-3.835 8.16 8.16 0 005.917 3.002 2.871 2.871 0 014.891-2.62 5.764 5.764 0 001.822-.696 2.884 2.884 0 01-1.261 1.59 5.765 5.765 0 001.648-.455 5.82 5.82 0 01-1.431 1.487z" fill="#4CB2F1"/></svg>